<svg width="31" height="41" viewBox="0 0 31 41" fill="none" xmlns="http://www.w3.org/2000/svg">
<path d="M14.305 0.00793425C14.2669 0.0100501 14.2301 0.0194389 14.1935 0.0280344C14.1439 0.039539 14.0957 0.0531595 14.0496 0.0748465C14.0151 0.090715 13.9835 0.111476 13.9518 0.13237C13.9281 0.148238 13.9007 0.156834 13.8792 0.175479L1.1923 11.1648C1.17723 11.1778 1.17141 11.1972 1.15779 11.2108C1.11746 11.2518 1.08519 11.2979 1.05636 11.3461C1.03626 11.3806 1.01471 11.4145 0.999499 11.4511C0.977944 11.5065 0.969349 11.5647 0.962076 11.6245C0.958505 11.6533 0.944092 11.6791 0.944092 11.7086V31.831C0.944092 36.8866 5.05748 41 10.1131 41H20.8867C25.9423 41 30.0557 36.8866 30.0557 31.831V9.16896C30.0558 4.11338 26.3718 0 21.8441 0H14.3502C14.3345 0 14.3209 0.00714083 14.305 0.00793425ZM12.9853 2.85329L10.1867 12.5423C8.44315 10.4428 6.2537 10.0637 4.48727 10.214L12.9853 2.85329ZM28.6167 9.16896V31.831C28.6167 36.094 25.1485 39.5615 20.8862 39.5615H10.1125C5.85024 39.5615 2.38204 36.094 2.38204 31.831V12.1682C3.61847 11.6511 7.51035 10.4478 9.82768 14.559C9.95648 14.7863 10.1966 14.925 10.4541 14.925C10.4821 14.925 10.5102 14.9235 10.5375 14.92C10.8253 14.8861 11.0648 14.6834 11.1453 14.405L14.8912 1.43848H21.8435C25.5778 1.43848 28.6167 4.90601 28.6167 9.16896Z" fill="#010002"/>
<path d="M10.9029 18.9545C10.9029 21.5581 13.0211 23.6763 15.6247 23.6763C18.2283 23.6763 20.3465 21.5581 20.3465 18.9545C20.3465 16.3508 18.2283 14.2327 15.6247 14.2327C13.0211 14.2327 10.9029 16.3501 10.9029 18.9545ZM15.6248 15.671C17.4352 15.671 18.9082 17.144 18.9082 18.9537C18.9082 20.7648 17.4352 22.237 15.6248 22.237C13.8145 22.237 12.3415 20.764 12.3415 18.9537C12.3415 17.1441 13.8145 15.671 15.6248 15.671Z" fill="#010002"/>
<path d="M15.6228 24.6206C14.295 24.6206 13.0284 24.8515 12.0567 25.2708L8.67988 26.7281C8.4166 26.8417 8.24548 27.1014 8.24548 27.3883V30.8055C8.24548 33.0862 10.2515 34.9412 12.7171 34.9412H18.5329C20.9985 34.9412 23.0045 33.105 23.0045 30.8487V27.4755C23.0045 27.1936 22.8398 26.9382 22.5845 26.8217L19.3012 25.3207C18.3142 24.8687 17.0079 24.6206 15.6228 24.6206ZM21.5659 30.8485C21.5659 32.3121 20.205 33.5025 18.5328 33.5025H12.717C11.0447 33.5025 9.68383 32.292 9.68383 30.8054V27.8607L12.6263 26.5905C13.4225 26.2467 14.4862 26.0583 15.6226 26.0583C16.7892 26.0583 17.9113 26.2654 18.7032 26.6272L21.5658 27.9362V30.8485H21.5659Z" fill="#010002"/>
</svg>
